<?xml version="1.0" encoding="UTF-8"?>
<svg width="50px" height="15px" viewBox="0 0 50 15" version="1.1" xmlns="http://www.w3.org/2000/svg" xmlns:xlink="http://www.w3.org/1999/xlink">
    <title>Path</title>
    <g id="Page-1" stroke="none" stroke-width="1" fill="none" fill-rule="evenodd">
        <g id="Desktop-HD" transform="translate(-691.000000, -684.000000)" fill="#FFFFFF" fill-rule="nonzero">
            <g id="Group" transform="translate(540.000000, 295.000000)">
                <path d="M160.326625,389 C160.393591,389.000622 160.460525,389.003367 160.527382,389.008338 C160.594787,389.01335 160.661982,389.020612 160.728963,389.030127 C160.795958,389.039647 160.862592,389.051405 160.928794,389.06539 C160.99505,389.079387 161.060789,389.095597 161.125547,389.113891 C161.190532,389.132232 161.254859,389.15273 161.318624,389.175421 C161.382124,389.198024 161.444825,389.222726 161.506963,389.249628 C161.56881,389.276418 161.629723,389.30525 161.689489,389.336014 C161.7494,389.366846 161.808244,389.399653 161.866134,389.434502 C161.923626,389.46912 161.979932,389.505616 162.035076,389.544005 C162.090307,389.582459 162.144219,389.622721 162.196577,389.664603 C162.248916,389.706458 162.299832,389.750009 162.349318,389.795245 C162.39886,389.840534 162.446869,389.887433 162.493099,389.935688 C162.539332,389.983929 162.583946,390.033654 162.62725,390.085229 C162.670089,390.136284 162.711228,390.188705 162.751321,390.243384 C162.790442,390.296814 162.827809,390.351477 162.863423,390.40737 C162.890312,390.449574 162.916149,390.492417 162.940972,390.535969 L162.965458,390.579759 L168.230832,400.182873 L173.304641,390.675902 C173.328801,390.630476 173.354116,390.585685 173.380573,390.541553 L173.407411,390.497642 C173.4428,390.440838 173.480017,390.385219 173.518957,390.330959 C173.558674,390.275606 173.600237,390.22162 173.642136,390.170838 C173.685704,390.117882 173.731059,390.066436 173.776506,390.018303 C173.82329,389.968611 173.87173,389.920528 173.921868,389.874014 C173.971211,389.828244 174.022029,389.784127 174.076027,389.740291 C174.128341,389.697935 174.182011,389.657327 174.23874,389.617281 C174.294246,389.578201 174.351025,389.540998 174.407514,389.506629 C174.466136,389.470878 174.52595,389.437147 174.586613,389.405615 C174.647088,389.374166 174.708583,389.344771 174.771042,389.31746 C174.83352,389.290141 174.89688,389.264943 174.96134,389.241791 C175.025894,389.218617 175.091206,389.197653 175.156303,389.179174 C175.222044,389.160473 175.288379,389.144006 175.355603,389.129714 C175.422559,389.115493 175.489955,389.103551 175.55774,389.093897 C175.625645,389.084226 175.69384,389.076871 175.761693,389.071877 C175.830007,389.066827 175.898451,389.064101 175.967343,389.063694 C176.035695,389.063306 176.104013,389.065228 176.17259,389.06948 C176.24083,389.073724 176.308885,389.080273 176.377455,389.08922 C176.444955,389.098059 176.512124,389.109163 176.579575,389.122651 C176.646563,389.136073 176.713061,389.151753 176.778971,389.169664 C176.845063,389.187624 176.910495,389.207812 176.974792,389.230064 C177.039577,389.252467 177.10354,389.277054 177.165148,389.30317 C177.228612,389.33 177.291094,389.358979 177.352179,389.389898 C177.412658,389.420493 177.472077,389.453086 177.531673,389.488407 C177.589867,389.522965 177.646875,389.559441 177.702409,389.597632 C177.758675,389.636312 177.81359,389.676864 177.867168,389.719296 C177.920134,389.761249 177.971675,389.804934 178.023337,389.851752 C178.072925,389.896805 178.121011,389.943456 178.169167,389.993331 C178.215825,390.041785 178.260863,390.09175 178.304107,390.143028 C178.347646,390.194643 178.389445,390.247667 178.429403,390.301968 C178.469258,390.356123 178.507308,390.411558 178.544859,390.470327 C178.571804,390.512632 178.5977,390.555577 178.622652,390.599349 L178.647292,390.643404 L183.856811,400.144582 L188.782274,390.655507 C188.805459,390.610748 188.829747,390.566585 188.855168,390.522973 L188.880966,390.479544 C188.915883,390.421869 188.952705,390.365384 188.989798,390.312438 C189.028563,390.256907 189.069175,390.202711 189.110096,390.151761 C189.152097,390.099313 189.195813,390.048286 189.243032,389.996733 C189.287736,389.948078 189.33397,389.900891 189.383457,389.853531 C189.431708,389.807484 189.481432,389.76304 189.532558,389.720263 C189.584247,389.677014 189.637346,389.635509 189.691529,389.595988 C189.745918,389.556302 189.801591,389.518447 189.859926,389.481553 C189.916902,389.445597 189.975037,389.411551 190.032583,389.380374 C190.092669,389.347732 190.153845,389.317154 190.214709,389.289284 C190.276344,389.260996 190.338899,389.234794 190.401199,389.211126 C190.465009,389.186834 190.52962,389.164723 190.594004,389.145108 C190.659043,389.125251 190.724717,389.107599 190.789896,389.092419 C190.856075,389.076962 190.922743,389.063745 190.990143,389.05273 C191.057015,389.041813 191.12421,389.033145 191.191305,389.026767 C191.259028,389.020315 191.326926,389.016154 191.394591,389.014296 C191.462519,389.012417 191.530469,389.012828 191.598047,389.015514 C191.665989,389.018202 191.733793,389.023177 191.801011,389.030397 C191.868491,389.037631 191.935686,389.047131 192.002505,389.05888 C192.0691,389.070589 192.13526,389.084515 192.201709,389.100834 C192.267558,389.117037 192.332813,389.135441 192.396459,389.155722 C192.461426,389.176382 192.525632,389.199223 192.587851,389.223763 C192.650791,389.248534 192.712857,389.27539 192.774147,389.304379 C192.835271,389.333298 192.895375,389.364236 192.954671,389.397307 C193.013627,389.430201 193.071442,389.465037 193.128423,389.502015 C193.184569,389.53847 193.23949,389.576752 193.293128,389.616824 C193.347449,389.657405 193.400367,389.699781 193.451893,389.743969 C193.502336,389.787231 193.551345,389.832108 193.600623,389.880262 C193.648225,389.926908 193.694273,389.975079 193.738596,390.02458 C193.783392,390.074599 193.826492,390.126057 193.867862,390.178898 C193.909492,390.232069 193.94931,390.286588 193.985829,390.340271 C194.014226,390.381876 194.041572,390.42416 194.0679,390.467176 L194.093889,390.510437 L201,402.227337 L198.057107,403.941839 L191.499253,392.81582 L186.561686,402.328337 C186.536245,402.377409 186.50947,402.425751 186.482623,402.471279 L186.462494,402.504865 C186.4273,402.563 186.390187,402.619922 186.349548,402.677913 C186.310715,402.733131 186.270093,402.787034 186.229096,402.837838 C186.185783,402.89166 186.140646,402.943961 186.093779,402.994631 C186.047908,403.044229 186.000431,403.092279 185.949738,403.140295 C185.901078,403.186265 185.850959,403.230629 185.795798,403.276332 C185.7439,403.319098 185.690628,403.360145 185.636183,403.399319 C185.579818,403.439884 185.522081,403.478472 185.465605,403.513442 C185.40719,403.54976 185.347582,403.584063 185.28685,403.616307 C185.22653,403.648334 185.165162,403.678316 185.100069,403.707443 C185.038507,403.734862 184.976072,403.760246 184.910844,403.784302 C184.846315,403.808012 184.781013,403.829511 184.714952,403.848795 C184.648736,403.868121 184.581904,403.885171 184.517991,403.89916 C184.44974,403.914251 184.380995,403.926943 184.312326,403.937152 C184.244861,403.947202 184.177097,403.954984 184.105713,403.960759 C184.03795,403.96611 183.97006,403.9692 183.902156,403.970023 C183.832975,403.970863 183.763829,403.969326 183.694975,403.965424 C183.625833,403.961513 183.556876,403.955223 183.488162,403.946563 C183.420166,403.937992 183.352514,403.927133 183.285876,403.914108 C183.218207,403.900907 183.151044,403.885406 183.084371,403.867598 C183.018218,403.849926 182.952713,403.830035 182.888093,403.808001 C182.823009,403.785816 182.758721,403.761427 182.694174,403.734395 C182.631087,403.707922 182.568937,403.679335 182.506372,403.647962 C182.445442,403.617339 182.385574,403.584686 182.329359,403.55153 C182.269451,403.516339 182.210821,403.479102 182.152782,403.43935 C182.097324,403.401323 182.04315,403.361514 181.988195,403.318284 C181.935065,403.276357 181.883369,403.232706 181.831241,403.185643 C181.781145,403.140278 181.732577,403.093285 181.685726,403.044851 C181.6382,402.995731 181.592361,402.94504 181.548323,402.892904 C181.504708,402.841276 181.462823,402.788234 181.422787,402.733929 C181.382407,402.679164 181.343884,402.623085 181.306536,402.564602 C181.279253,402.521806 181.253054,402.478359 181.228051,402.434474 L181.203451,402.390449 L175.989247,392.880817 L170.913929,402.390708 C170.890353,402.434824 170.865715,402.478345 170.839784,402.521639 L170.813414,402.564872 C170.777665,402.622354 170.740034,402.678601 170.701768,402.731858 C170.661864,402.787543 170.620089,402.841839 170.576519,402.894644 C170.533588,402.94668 170.488969,402.997255 170.442571,403.04646 C170.396748,403.095043 170.349383,403.142108 170.29701,403.190855 C170.247951,403.236269 170.197431,403.280068 170.14512,403.322518 C170.091654,403.365882 170.036726,403.407387 169.984266,403.444264 C169.927528,403.484392 169.869424,403.522521 169.810117,403.558544 C169.753489,403.592947 169.695796,403.625516 169.632944,403.658382 C169.572745,403.689658 169.511537,403.718909 169.449417,403.746085 C169.385676,403.773972 169.321,403.799617 169.259635,403.8215 C169.195192,403.844675 169.130006,403.865648 169.064204,403.88438 C168.997536,403.903361 168.930247,403.920019 168.86655,403.933461 C168.798333,403.948039 168.729654,403.960216 168.664004,403.969494 C168.595415,403.979332 168.526542,403.986789 168.457166,403.991877 C168.389345,403.99684 168.321406,403.99953 168.253413,404 C168.184173,404.000366 168.114972,403.998397 168.049604,403.994263 C167.98046,403.990046 167.911506,403.983439 167.8428,403.974449 C167.774786,403.965548 167.707129,403.954342 167.643196,403.941502 C167.574653,403.927879 167.506634,403.911854 167.442425,403.894321 C167.375268,403.876128 167.308792,403.855605 167.246184,403.833853 C167.181218,403.811425 167.117056,403.786789 167.055356,403.760651 C166.991885,403.733839 166.929377,403.704866 166.869244,403.674443 C166.807332,403.643189 166.746559,403.609817 166.691015,403.576749 C166.631174,403.541354 166.572623,403.503905 166.517028,403.465549 C166.460867,403.426901 166.406052,403.386391 166.354648,403.345652 C166.30073,403.303056 166.2483,403.258638 166.19927,403.214133 C166.147957,403.167697 166.09829,403.119519 166.052063,403.071458 C166.005139,403.022818 165.95987,402.972663 165.916287,402.921031 C165.872672,402.86936 165.83081,402.816276 165.789102,402.75961 C165.749621,402.705791 165.711905,402.650706 165.675477,402.59361 C165.648585,402.551408 165.622737,402.508573 165.597664,402.464618 L165.57284,402.420273 L160.297465,392.799006 L153.971793,403.96203 L151,402.297529 L157.661065,390.542566 C157.693949,390.484519 157.728717,390.427585 157.76535,390.371795 C157.801967,390.316032 157.84039,390.261499 157.880691,390.20811 C157.920949,390.154789 157.962937,390.102821 158.006442,390.052455 C158.050164,390.001821 158.095528,389.952655 158.142847,389.904645 C158.189814,389.857019 158.238321,389.810965 158.288154,389.766679 C158.338406,389.722009 158.39011,389.679032 158.442854,389.638077 C158.496082,389.596721 158.550658,389.557164 158.606134,389.519711 C158.661792,389.482114 158.718662,389.44638 158.777167,389.41227 C158.835323,389.378388 158.894572,389.346456 158.954731,389.316571 C159.015197,389.286528 159.076632,389.258522 159.138843,389.232637 C159.20108,389.206734 159.264145,389.182919 159.328193,389.161142 C159.392093,389.139424 159.456682,389.119851 159.522229,389.102354 C159.587422,389.084965 159.653157,389.069761 159.719648,389.056701 C159.785885,389.043702 159.852517,389.032921 159.91983,389.024324 C159.986948,389.015766 160.054311,389.009462 160.121829,389.005419 C160.188738,389.001412 160.255695,388.999631 160.326625,389 Z" id="Path" transform="translate(176.000000, 396.500000) rotate(-360.000000) translate(-176.000000, -396.500000) "></path>
            </g>
        </g>
    </g>
</svg>